<svg width="22" height="13" viewBox="0 0 22 13" fill="none" xmlns="http://www.w3.org/2000/svg">
<path fill-rule="evenodd" clip-rule="evenodd" d="M14.055 12.7274C13.9685 12.6411 13.8999 12.5387 13.8531 12.4259C13.8063 12.3131 13.7822 12.1922 13.7822 12.0701C13.7822 11.948 13.8063 11.8271 13.8531 11.7143C13.8999 11.6015 13.9685 11.499 14.055 11.4128L18.9698 6.49988L14.055 1.58695C13.8806 1.41263 13.7827 1.17619 13.7827 0.929664C13.7827 0.683134 13.8806 0.446701 14.055 0.272378C14.2293 0.0980549 14.4657 0.00012204 14.7123 0.00012203C14.9588 0.000122019 15.1952 0.0980548 15.3695 0.272378L20.9398 5.84259C21.0262 5.92883 21.0948 6.03128 21.1416 6.14407C21.1884 6.25685 21.2125 6.37777 21.2125 6.49988C21.2125 6.62199 21.1884 6.7429 21.1416 6.85569C21.0948 6.96848 21.0262 7.07093 20.9398 7.15716L15.3695 12.7274C15.2833 12.8138 15.1809 12.8824 15.0681 12.9292C14.9553 12.976 14.8344 13.0001 14.7123 13.0001C14.5901 13.0001 14.4692 12.976 14.3564 12.9292C14.2437 12.8824 14.1412 12.8138 14.055 12.7274Z" fill="white"/>
<path fill-rule="evenodd" clip-rule="evenodd" d="M0.787109 6.49998C0.787109 6.25376 0.88492 6.01762 1.05902 5.84352C1.23313 5.66942 1.46926 5.57161 1.71548 5.57161L18.4261 5.57161C18.6723 5.57161 18.9085 5.66941 19.0826 5.84352C19.2567 6.01762 19.3545 6.25376 19.3545 6.49997C19.3545 6.74619 19.2567 6.98233 19.0826 7.15643C18.9085 7.33053 18.6723 7.42834 18.4261 7.42834L1.71548 7.42834C1.46926 7.42834 1.23313 7.33053 1.05902 7.15643C0.88492 6.98233 0.787109 6.74619 0.787109 6.49998Z" fill="white"/>
</svg>
